<?xml version="1.0" encoding="UTF-8"?>
<svg id="_Слой_1" data-name="Слой 1" xmlns="http://www.w3.org/2000/svg" xmlns:xlink="http://www.w3.org/1999/xlink" viewBox="0 0 1920 1080">
  <defs>
    <style>
      .cls-1 {
        stroke-width: 0px;
      }

      .cls-1, .cls-2 {
        fill: none;
      }

      .cls-2 {
        stroke: #000;
        stroke-miterlimit: 10;
        stroke-width: 10px;
      }

      .cls-3 {
        clip-path: url(#clippath);
      }
    </style>
    <clipPath id="clippath">
      <rect class="cls-1" width="1920" height="1080"/>
    </clipPath>
  </defs>
  <g class="cls-3">
    <path class="cls-2" d="m200.23,1272.23c1.91-84.28,23.62-142.42,42.34-179.26,16.81-33.06,27.54-41.72,132.68-177.85,56.95-73.73,76-99.94,77.63-141.15.45-11.27,1.38-69.03-40.93-105.86-48.91-42.57-118.21-24.61-136.91-19.76-74.49,19.31-125.83,78.39-143.97,135.5-6.04,19.01-19.77,62.23,2.82,86.1,16.85,17.8,46.89,17.43,66.34,11.29,57.73-18.23,68.72-102.08,69.16-105.86,7.68-65.35-30.41-127.32-77.63-156.67-30.85-19.18-53.73-17.05-90.33-23.99-124.53-23.62-198.04-105.17-197.61-105.86.38-.6,56.38,55.49,119.98,45.17,39.72-6.45,83.03-37.99,81.87-70.57-1.11-31.02-42.23-55.58-65.27-62.89-124.34-39.46-316.92,234.5-360.99,297.2-97.84,139.18-238.09,391.58-280.88,789.01"/>
  </g>
</svg>