<?xml version="1.0" encoding="UTF-8"?>
<svg id="_Слой_1" data-name="Слой 1" xmlns="http://www.w3.org/2000/svg" xmlns:xlink="http://www.w3.org/1999/xlink" viewBox="0 0 1920 1080">
  <defs>
    <style>
      .cls-1 {
        stroke-width: 0px;
      }

      .cls-1, .cls-2 {
        fill: none;
      }

      .cls-2 {
        stroke: #000;
        stroke-miterlimit: 10;
        stroke-width: 10px;
      }

      .cls-3 {
        clip-path: url(#clippath);
      }
    </style>
    <clipPath id="clippath">
      <rect class="cls-1" width="1920" height="1080"/>
    </clipPath>
  </defs>
  <g class="cls-3">
    <path class="cls-2" d="m1629.61,1308.3c20.66-27.3,55.09-80.84,65.13-155.43,2.07-15.38,9.58-79.76-17.72-157.51-47.09-134.12-143.67-153.91-139.15-241.29,2.18-42.14,27-83.03,61.31-99.08,65.19-30.49,166.99,27.62,172.59,88.72,2.49,27.16-13.56,60.08-35.53,65.14-34.29,7.89-89.52-50.63-83.89-103.62,4.69-44.08,49.98-70.24,58.23-75,105.4-60.88,261.76,18.27,263.62,12.27,1.09-3.52-57.23-16.53-109.17-61.61-18.21-15.81-69.25-60.11-59.21-93.26,14.42-47.65,155.03-72.36,246.72-14.31,18.13,11.48,14.4,14.52,41.41,35.63,27.83,21.76,94.2,73.63,166.54,79.38,93.16,7.4,200.62-61.36,228.52-153.39,17.32-57.12.8-112.69-37.56-190.96-107.46-219.26-216.75-253.75-313.04-406.96-26.9-42.79-173.23-275.6-90.78-494.61,84.82-225.33,357.48-291.71,413.22-303.65,338.21-72.49,619,159.34,669.91,203.48,310.12,268.82,397.7,773.2,231.65,1277.22"/>
  </g>
</svg>