<svg width="403" height="192" viewBox="0 0 403 192" fill="none" xmlns="http://www.w3.org/2000/svg">
<path d="M5.17903 43.2147C5.17903 43.2147 61.3035 6.61125 102.857 5.96552C158.062 5.10762 179.07 86.9608 167.479 122.506C155.889 158.051 119.66 153.407 97.6253 144.873C75.5906 136.338 64.6116 104.432 79.7673 74.7071C94.9229 44.9821 162.023 -2.15777 235.539 20.7836C309.056 43.7249 335.97 92.7128 297.296 128.044C283.133 140.984 267.447 145.633 251.899 146.794C236.35 147.956 208.077 133.119 217.437 103.124C226.798 73.128 301.056 36.1126 352.589 57.3099C398.743 76.2948 435.524 123.066 424.003 159.986C412.482 196.906 377.597 186.02 370.101 183.681C362.606 181.341 343.037 172.068 347.461 143.699C351.884 115.329 393.193 32.6317 502.661 82.3021" stroke="#F4A261" stroke-width="10" stroke-linecap="round"/>
</svg>
