<?xml version="1.0" encoding="UTF-8"?><svg id="b" xmlns="http://www.w3.org/2000/svg" xmlns:xlink="http://www.w3.org/1999/xlink" viewBox="0 0 141 141"><defs><style>.e{fill:#fff;}.e,.f{stroke-width:0px;}.f{fill:url(#d);}</style><linearGradient id="d" x1="139.17" y1="2.84" x2="3.87" y2="136.15" gradientUnits="userSpaceOnUse"><stop offset=".24" stop-color="#2aabee"/><stop offset="1" stop-color="#229ed9"/></linearGradient></defs><g id="c"><rect class="f" width="141" height="141" rx="20.29" ry="20.29"/><path class="e" d="m41.74,30.4c0-2.09,1.69-3.78,3.78-3.78h29.21c17.04,0,24.54,5.82,24.54,20.76v43c0,14.71-7.36,21.1-24.4,21.1h-29.35c-2.09,0-3.78-1.69-3.78-3.78V30.4Zm21.67,62.59c0,2.09,1.69,3.78,3.78,3.78h2.22c6,0,8.04-2.51,8.04-8.33v-39.58c0-5.82-2.04-8.21-7.91-8.21h-2.36c-2.09,0-3.78,1.69-3.78,3.78v48.56Z"/></g></svg>