<?xml version="1.0" encoding="UTF-8"?><svg id="b" xmlns="http://www.w3.org/2000/svg" xmlns:xlink="http://www.w3.org/1999/xlink" viewBox="0 0 141 141"><defs><style>.e{fill:#fff;}.e,.f{stroke-width:0px;}.f{fill:url(#d);}</style><linearGradient id="d" x1="139.17" y1="2.84" x2="3.87" y2="136.15" gradientUnits="userSpaceOnUse"><stop offset=".24" stop-color="#2aabee"/><stop offset="1" stop-color="#229ed9"/></linearGradient></defs><g id="c"><rect class="f" width="141" height="141" rx="20.29" ry="20.29"/><path class="e" d="m74.42,99.7h-9.42v-11.79h-28.71v11.79h-9.42v-20.21h1.71c.79,0,1.47-.07,2.04-.2.57-.13,1.1-.4,1.58-.79.31-.31.58-.72.82-1.25.24-.53.43-1.08.56-1.65.13-.57.24-1.13.33-1.68.09-.55.15-1.06.2-1.55.26-2.9.45-5.86.56-8.89.11-3.03.21-6.01.3-8.95.13-4.35.2-8.76.2-13.23h33.58v38.19h5.66v20.21Zm-15.21-20.21v-29.69h-14.95l-.4,14.95c0,1.01-.02,2.17-.07,3.49-.04,1.32-.13,2.66-.26,4.02-.13,1.36-.31,2.68-.53,3.95-.22,1.27-.53,2.37-.92,3.29h17.12Z"/><path class="e" d="m102.99,53.22h10.53l-11.13,17.18,11.72,17.51h-10.47l-7.18-11.52-6.91,11.52h-10.4l11.46-17.65-10.86-17.05h10.67l6.39,11.26,6.19-11.26Z"/></g></svg>